HIERARCHY
ROOT Hips
{
  OFFSET -0.467749 0.00 -2.5523
  CHANNELS 6 Xposition Yposition Zposition Zrotation Xrotation Yrotation
  JOINT LHipJoint
  {
    OFFSET 0 0 0
    CHANNELS 3 Zrotation Xrotation Yrotation
    JOINT LeftUpLeg
    {
      OFFSET 1.8 -1.4 0.085
      CHANNELS 3 Zrotation Xrotation Yrotation
      JOINT LeftLeg
      {
        OFFSET 2.215 -6 0
        CHANNELS 3 Zrotation Xrotation Yrotation
        JOINT LeftFoot
        {
          OFFSET 2.5 -6.9 0
          CHANNELS 3 Zrotation Xrotation Yrotation
          JOINT LeftToeBase
          {
            OFFSET 0.2 -0.5 1.95
            CHANNELS 3 Zrotation Xrotation Yrotation
            End Site
            {
              OFFSET 0 0 1
            }
          }
        }
      }
    }
  }
  JOINT RHipJoint
  {
    OFFSET 0 0 0
    CHANNELS 3 Zrotation Xrotation Yrotation
    JOINT RightUpLeg
    {
      OFFSET -1.8 -1.4 0.085
      CHANNELS 3 Zrotation Xrotation Yrotation
      JOINT RightLeg
      {
        OFFSET -2.215 -6 0
        CHANNELS 3 Zrotation Xrotation Yrotation
        JOINT RightFoot
        {
          OFFSET -2.5 -6.9 0
          CHANNELS 3 Zrotation Xrotation Yrotation
          JOINT RightToeBase
          {
            OFFSET -0.2 -0.5 1.95
            CHANNELS 3 Zrotation Xrotation Yrotation
            End Site
            {
              OFFSET 0 0 1
            }
          }
        }
      }
    }
  }
  JOINT LowerBack
  {
    OFFSET 0 0 0
    CHANNELS 3 Zrotation Xrotation Yrotation
    JOINT Spine
    {
      OFFSET -0.087 1.94 -0.2889
      CHANNELS 3 Zrotation Xrotation Yrotation
      JOINT Spine1
      {
        OFFSET 0 1.95 0.06
        CHANNELS 3 Zrotation Xrotation Yrotation
        JOINT Neck
        {
          OFFSET 0 0 0
          CHANNELS 3 Zrotation Xrotation Yrotation
          JOINT Neck1
          {
            OFFSET 0 1.6 0.34
            CHANNELS 3 Zrotation Xrotation Yrotation
            JOINT Head
            {
              OFFSET 0 1.667 -0.24
              CHANNELS 3 Zrotation Xrotation Yrotation
              End Site
              {
                OFFSET 0 1.686 -0.12
              }
            }
          }
        }
        JOINT LeftShoulder
        {
          OFFSET 0 0 0
          CHANNELS 3 Zrotation Xrotation Yrotation
          JOINT LeftArm
          {
            OFFSET 2.7 1.55 -0.73
            CHANNELS 3 Zrotation Xrotation Yrotation
            JOINT LeftForeArm
            {
              OFFSET 5.45 0 0
              CHANNELS 3 Zrotation Xrotation Yrotation
              JOINT LeftHand
              {
                OFFSET 3.45 0 0
                CHANNELS 3 Zrotation Xrotation Yrotation
                JOINT LeftFingerBase
                {
                  OFFSET 0 0 0
                  CHANNELS 3 Zrotation Xrotation Yrotation
                  JOINT LeftHandIndex1
                  {
                    OFFSET 0.75 0 0
                    CHANNELS 3 Zrotation Xrotation Yrotation
                    End Site
                    {
                      OFFSET 0.6 0 0
                    }
                  }
                }
                JOINT LThumb
                {
                  OFFSET 0 0 0
                  CHANNELS 3 Zrotation Xrotation Yrotation
                  End Site
                  {
                    OFFSET 0.59 0 0.59
                  }
                }
              }
            }
          }
        }
        JOINT RightShoulder
        {
          OFFSET 0 0 0
          CHANNELS 3 Zrotation Xrotation Yrotation
          JOINT RightArm
          {
            OFFSET -2.7 1.55 -0.73
            CHANNELS 3 Zrotation Xrotation Yrotation
            JOINT RightForeArm
            {
              OFFSET -5.45 0 0
              CHANNELS 3 Zrotation Xrotation Yrotation
              JOINT RightHand
              {
                OFFSET -3.45 0 0
                CHANNELS 3 Zrotation Xrotation Yrotation
                JOINT RightFingerBase
                {
                  OFFSET 0 0 0
                  CHANNELS 3 Zrotation Xrotation Yrotation
                  JOINT RightHandIndex1
                  {
                    OFFSET -0.75 0 0
                    CHANNELS 3 Zrotation Xrotation Yrotation
                    End Site
                    {
                      OFFSET -0.6 0 0
                    }
                  }
                }
                JOINT RThumb
                {
                  OFFSET 0 0 0
                  CHANNELS 3 Zrotation Xrotation Yrotation
                  End Site
                  {
                    OFFSET -0.59 0 0.59
                  }
                }
              }
            }
          }
        }
      }
    }
  }
}
MOTION
Frames:	6
Frame Time:	0.00833333
-0.468155 18.3015 -2.55201 0.000277582 4.09749e-005 0.0014049 2.02905e-021 0 3.88251e-019 -17.6951 -5.28514 2.20098 0.698598 8.15477 3.51688 -1.24448 -2.77931 -5.83013 -4.85298e-016 -8.433e-014 -1.16644e-013 2.02905e-021 0 3.88251e-019 23.324 -6.79161 1.57042 -0.51373 9.56071 -14.6635 2.19091 -2.3073 13.2452 -7.22642e-016 -7.76503e-019 3.88251e-019 2.02905e-021 0 3.88251e-019 2.82563e-005 -0.00573211 0.000986331 0.000706637 0.00417013 0.000875259 -0.00283095 -15.9972 0.000858521 -0.00335043 21.0028 0.00175547 0.00296888 10.9983 -0.000541466 0.335862 0.00540228 3.49498 -34.7864 -50.7001 -40.5975 11.075 56.9687 -0.000134724 2.70618 -2.16709 -7.26238 6.95837e-008 -4.19936e-007 2.80002e-008 -2.98177e-015 1.59028e-015 -3.18055e-015 -2.38542e-015 -7.95139e-016 -6.36111e-015 -0.323612 0.0420086 -3.00443 40.6815 -42.0138 46.8793 12.1925 -1.49244 6.04281 -13.3331 -0.534046 -14.2821 -2.9842e-006 3.27887e-006 -1.27613e-006 -3.99018e-008 2.69097e-006 -9.94233e-007 6.36111e-015 0 4.77083e-015 
-0.469901 18.3033 -2.55064 0.00126061 4.09749e-005 0.00718265 -4.51339e-020 -1.21329e-020 -0 -17.6873 -5.2342 2.22152 0.70071 8.06927 3.47914 -1.26903 -2.74361 -5.81378 5.06685e-015 -8.4329e-014 -1.16645e-013 -4.51339e-020 -1.21329e-020 -0 23.3222 -6.75641 1.56009 -0.497531 9.48944 -14.6766 2.12354 -2.2613 13.2591 -1.91202e-016 0 -3.88251e-019 -4.51339e-020 -1.21329e-020 -0 -0.000267097 -0.0286201 0.00514299 0.00547005 0.0208035 0.0042399 -0.0157563 -15.9852 0.00470777 -0.0186217 21.0148 0.00969568 0.017957 10.9893 -0.00346298 0.335862 0.00540228 3.49498 -34.8355 -50.6849 -40.6226 11.0762 56.9532 -0.000134668 2.70883 -2.16428 -7.28105 6.95837e-008 -4.19936e-007 2.80002e-008 -3.57812e-015 0 6.36111e-015 -1.39149e-015 1.59028e-015 -3.18055e-015 -0.323609 0.0420084 -3.0094 40.6617 -42.0165 46.8633 12.2021 -1.51342 6.04649 -13.3353 -0.534298 -14.3029 -2.9842e-006 3.27887e-006 -1.27613e-006 -3.99018e-008 2.69097e-006 -9.94233e-007 -3.18055e-015 0 1.59028e-015 
-0.471667 18.3052 -2.54923 0.00222327 4.09749e-005 0.0129857 -5.41748e-019 -2.42657e-020 3.10601e-018 -17.6793 -5.18258 2.2425 0.702594 7.98276 3.4409 -1.29382 -2.70755 -5.7973 -3.42329e-015 -8.43305e-014 -1.16643e-013 -5.41748e-019 -2.42657e-020 3.10601e-018 23.3208 -6.72061 1.5498 -0.481982 9.4171 -14.6904 2.05562 -2.21448 13.2737 2.13103e-015 0 -7.76503e-019 -5.41748e-019 -2.42657e-020 3.10601e-018 -0.000624773 -0.0515016 0.00933346 0.0105416 0.0374294 0.00758273 -0.0289394 -15.9732 0.00862302 -0.0341954 21.0268 0.017784 0.0334421 10.98 -0.00650523 0.335862 0.00540228 3.49498 -34.885 -50.6697 -40.6477 11.0773 56.9372 -0.00013461 2.7122 -2.16149 -7.29976 6.95837e-008 -4.19936e-007 2.80002e-008 -2.98177e-015 0 -0 9.93923e-016 -7.95139e-016 -3.18055e-015 -0.323605 0.0420082 -3.01431 40.6419 -42.0195 46.8479 12.2114 -1.53479 6.04992 -13.337 -0.534599 -14.3239 -2.9842e-006 3.27887e-006 -1.27613e-006 -3.99018e-008 2.69097e-006 -9.94233e-007 -3.18055e-015 -3.18055e-015 -0 
-0.473214 18.3068 -2.54822 0.00340998 4.09749e-005 0.0185104 -8.35911e-019 1.21329e-020 -0 -17.6738 -5.13847 2.25869 0.705627 7.90722 3.40844 -1.31626 -2.67556 -5.78223 4.88238e-015 -8.43282e-014 -1.16649e-013 -8.35911e-019 1.21329e-020 -0 23.3147 -6.69143 1.53909 -0.459678 9.35677 -14.6958 1.99341 -2.17679 13.2802 -4.38196e-016 -1.2424e-017 2.32951e-018 -8.35911e-019 1.21329e-020 -0 -0.000257169 -0.0744543 0.013152 0.0122 0.0541382 0.0111656 -0.0393066 -15.9623 0.0118068 -0.0464845 21.0377 0.0242581 0.0434484 10.9742 -0.00821738 0.335862 0.00540228 3.49498 -34.9306 -50.6554 -40.6723 11.0799 56.9262 -0.00013457 2.70757 -2.15836 -7.31802 6.95837e-008 -4.19936e-007 2.80002e-008 -2.5842e-015 -7.95139e-016 3.18055e-015 3.97569e-016 -7.95139e-016 -0 -0.323601 0.042008 -3.01984 40.6212 -42.0186 46.8263 12.2233 -1.55192 6.05623 -13.3432 -0.534345 -14.3423 -2.9842e-006 3.27887e-006 -1.27613e-006 -3.99018e-008 2.69097e-006 -9.94233e-007 9.54166e-015 0 -1.59028e-015 
-0.474308 18.3078 -2.54806 0.00508248 0.000624415 0.02346 -2.82847e-019 -1.94126e-019 -6.21202e-018 -17.6732 -5.11009 2.26471 0.711348 7.85443 3.38805 -1.33385 -2.65196 -5.77001 1.78271e-015 -8.43297e-014 -1.1664e-013 -2.82847e-019 -1.94126e-019 -6.21202e-018 23.2983 -6.67628 1.52741 -0.422299 9.32178 -14.6825 1.94251 -2.15839 13.269 8.9512e-015 -1.2424e-017 -7.76503e-018 -2.82847e-019 -1.94126e-019 -6.21202e-018 0.0017037 -0.0976767 0.0161961 0.00654383 0.0710658 0.0152849 -0.0436826 -15.9538 0.0134208 -0.0517769 21.0462 0.0272813 0.0417224 10.976 -0.00713889 0.335862 0.00540228 3.49498 -34.9679 -50.643 -40.6961 11.0855 56.9259 -0.000134569 2.68583 -2.15448 -7.33539 6.95837e-008 -4.19936e-007 2.80002e-008 -2.78299e-015 -7.95139e-016 -6.36111e-015 -1.98785e-015 -7.95139e-016 -3.18055e-015 -0.323596 0.0420077 -3.0268 40.5985 -42.009 46.7918 12.2405 -1.56009 6.06895 -13.3589 -0.532906 -14.3552 -2.9842e-006 3.27887e-006 -1.27613e-006 -3.99018e-008 2.69097e-006 -9.94233e-007 -0 -9.54166e-015 -0 
-0.47489 18.308 -2.54918 0.00761748 0.0040836 0.0278031 -3.34033e-019 1.55301e-018 -0 -17.6799 -5.10139 2.25598 0.72209 7.8267 3.38245 -1.34621 -2.63644 -5.76005 3.84531e-015 -8.43344e-014 -1.1664e-013 -3.34033e-019 1.55301e-018 -0 23.2628 -6.68129 1.51314 -0.353014 9.32147 -14.6345 1.89584 -2.16676 13.2247 5.98685e-015 1.2424e-017 -1.55301e-018 -3.34033e-019 1.55301e-018 -0 0.00684912 -0.123057 0.0183365 -0.0108353 0.0889494 0.0205854 -0.0391552 -15.9491 0.012481 -0.046585 21.0509 0.0249379 0.0213413 10.9905 -0.00247395 0.335862 0.00540228 3.49501 -34.9941 -50.6326 -40.7204 11.0957 56.9419 -0.000134627 2.63759 -2.14922 -7.35258 6.95837e-008 -4.19936e-007 2.80002e-008 -1.98785e-015 -1.59028e-015 3.18055e-015 -7.95139e-016 -7.95139e-016 -0 -0.323588 0.0420073 -3.03786 40.571 -41.9852 46.7362 12.2673 -1.55552 6.09513 -13.3897 -0.529707 -14.3652 -2.9842e-006 3.27887e-006 -1.27613e-006 -3.99018e-008 2.69097e-006 -9.94233e-007 3.18055e-015 6.36111e-015 -1.59028e-015 
